<svg width="24" height="24" viewBox="0 0 110 110" fill="none" xmlns="http://www.w3.org/2000/svg">
  <!-- Face circle -->
  <circle cx="55" cy="52" r="36" stroke="currentColor" stroke-width="2.5"/>
  <!-- Left eye: X (dead/cooked) -->
  <line x1="38" y1="40" x2="46" y2="48" stroke="currentColor" stroke-width="2.5" stroke-linecap="round"/>
  <line x1="46" y1="40" x2="38" y2="48" stroke="currentColor" stroke-width="2.5" stroke-linecap="round"/>
  <!-- Right eye: $ -->
  <line x1="67" y1="38" x2="67" y2="41" stroke="currentColor" stroke-width="1.5" stroke-linecap="round"/>
  <line x1="67" y1="48" x2="67" y2="51" stroke="currentColor" stroke-width="1.5" stroke-linecap="round"/>
  <path d="M71 41H63C61.9 41 61 41.9 61 43C61 44.1 61.9 45 63 45H71C72.1 45 73 45.9 73 47C73 48.1 72.1 49 71 49H63"
        stroke="currentColor" stroke-width="1.5" stroke-linecap="round"/>
  <!-- Mouth: wavy/glitchy -->
  <path d="M40 64 Q46 60 52 64 Q58 68 64 64 Q70 60 74 64"
        stroke="currentColor" stroke-width="2" stroke-linecap="round"/>
  <!-- Glitch offset lines -->
  <line x1="19" y1="55" x2="28" y2="55" stroke="currentColor" stroke-width="1" opacity="0.5"/>
  <line x1="82" y1="47" x2="91" y2="47" stroke="currentColor" stroke-width="1" opacity="0.5"/>
  <!-- Sparkle top right -->
  <line x1="82" y1="20" x2="82" y2="28" stroke="currentColor" stroke-width="1.5" stroke-linecap="round"/>
  <line x1="78" y1="24" x2="86" y2="24" stroke="currentColor" stroke-width="1.5" stroke-linecap="round"/>
  <line x1="79" y1="21" x2="85" y2="27" stroke="currentColor" stroke-width="1" stroke-linecap="round"/>
  <line x1="85" y1="21" x2="79" y2="27" stroke="currentColor" stroke-width="1" stroke-linecap="round"/>
</svg>
